<?xml version="1.0" encoding="utf-8"?>
<!-- Generator: Adobe Illustrator 26.1.0, SVG Export Plug-In . SVG Version: 6.00 Build 0)  -->
<svg version="1.1" id="Layer_1" xmlns="http://www.w3.org/2000/svg" xmlns:xlink="http://www.w3.org/1999/xlink" x="0px" y="0px"
	 viewBox="0 0 76.3 48.4" style="enable-background:new 0 0 76.3 48.4;" xml:space="preserve">
<style type="text/css">
	.st0{fill:#A81F24;}
</style>
<g>
	<path class="st0" d="M27.5,0.8c-0.4,0.2-0.8,0.4-1.2,0.3c-0.8-0.1-1.3,0.3-1.8,0.8c-0.7,0.8-1.1,1.7-1.5,2.7
		c-0.3,0.8-0.6,1.6-0.8,2.4c-0.3,1.1-0.5,2.2-0.7,3.3c-0.1,0.6-0.2,1.3-0.2,1.9c0,0.1,0,0.3,0,0.4c0.2-0.1,0.3-0.2,0.4-0.3
		c0.5-0.3,1-0.6,1.6-0.7c0.8-0.2,1.3,0.1,1.6,0.9c0.3,0.8,0.4,1.6,0.4,2.4c0,0.9,0,1.9,0,2.8c0,0.8,0.2,1.6,0.7,2.2
		c0.6,0.9,1.5,0.9,2.2,0.4c0.4-0.2,0.6-0.5,1-0.8c0.1-0.1,0.1-0.3,0.1-0.5c-0.7-1.4-0.9-2.9-0.4-4.4c0.3-0.8,0.8-1.3,1.6-1.6
		c0.3-0.1,0.6-0.2,0.9-0.3c0.9-0.2,1.6,0.5,1.5,1.4c-0.1,0.8-0.4,1.5-0.6,2.3c-0.3,0.9-0.8,1.7-1.4,2.4c-0.2,0.2-0.2,0.3,0,0.5
		c0.8,1,2.3,1.3,3.4,0.6c0.5-0.3,0.9-0.7,1.4-1.1c0.1-0.1,0.2-0.3,0.1-0.5c-0.4-1-0.5-2.1-0.4-3.2c0.1-0.9,0.2-1.8,0.3-2.6
		c0.3-1.5,0.8-3,2-4.2c0.5-0.5,1.1-0.8,1.9-0.9c0.4,0,0.7,0.2,0.8,0.7c0.2,0.8,0.1,1.6,0,2.4c-0.3,1.2-0.6,2.5-1,3.7
		c-0.5,1.4-1.1,2.7-2.1,3.8c-0.2,0.2-0.2,0.4-0.1,0.6c0.5,0.9,1.3,1.6,2.4,1.9c0.5,0.1,1,0,1.4-0.1c0.2-0.1,0.2-0.2,0.2-0.4
		c-0.4-1.1-0.5-2.3-0.3-3.4c0.1-1,0.3-2,0.5-2.9c0.4-1.5,1-2.9,1.9-4.2c0.8-0.9,1.7-1.6,3-1.7c0.7,0,1.3,0.3,1.5,1.1
		c0.2,0.9,0,1.7-0.2,2.5c-0.5,2-1.3,3.9-2.4,5.7c-0.6,1-1.4,1.9-2.3,2.7c-0.2,0.2-0.2,0.3,0,0.4c0.7,0.8,1.6,1.1,2.6,0.9
		c1.2-0.2,2.1-0.8,2.9-1.7c0.1-0.1,0.1-0.2,0.1-0.4c0.2-1.3,0.7-2.3,1.7-3.1c0.3-0.2,0.7-0.3,1-0.4c0.2,0,0.2,0.1,0.1,0.2
		c-0.3,0.8-0.6,1.6-1.1,2.4c-0.1,0.1-0.2,0.3-0.3,0.4c-0.6,0.6-0.4,1.3-0.1,1.9c0.5,1,1.7,1.3,2.7,0.7c0.6-0.3,1-0.8,1.4-1.3
		c0.1-0.1,0.1-0.3,0.1-0.5c0.1-1.1,0.3-2.2,1-3.2c0.4-0.6,0.9-1,1.7-1.2c0.1,0,0.3-0.1,0.5-0.1c0,0.2,0,0.3,0,0.4
		c-0.3,1.6-1,3-1.9,4.3c-0.1,0.1-0.1,0.3-0.2,0.5c0,0,0.1,0,0.1,0.1c0.2-0.1,0.5-0.2,0.7-0.3c1.4-0.7,2.9-1.4,4.3-2.1
		c0.8-0.4,1.7-0.8,2.6-1.2c0.8-0.4,1.7-0.7,2.6-0.7c0.7,0,1.4,0.1,1.8,0.7c0.1,0.2,0.3,0.4,0.3,0.7c0.1,0.7,0.4,1.5,0.3,2.2
		c-0.1,0.7-0.4,1.5-1,2c-0.6,0.6-1.3,0.8-2.2,0.9c-1,0.1-2-0.2-2.8-0.9c-0.4-0.3-0.7-0.7-0.8-1.2c-0.1-0.2,0-0.2,0.1-0.3
		c0.6-0.2,1.1-0.5,1.7-0.6c0.9-0.3,1.8-0.1,2.7,0.1c0.3,0,0.6,0.1,0.9,0.1c0.1,0,0.2-0.1,0.2-0.2c0-0.7-0.1-1.4-0.4-2.1
		c-0.5-0.8-1.3-1-2.2-0.8c-1.1,0.2-2.1,0.8-3.1,1.3c-0.8,0.4-1.6,0.8-2.5,1.1c-1,0.5-2.1,0.9-3.1,1.4c-0.1,0-0.2,0.2-0.2,0.4
		c0,1,0.1,2.1,0.1,3.1c0,1.3,0,2.6-0.4,3.8c-0.4,1.2-1.3,2-2.5,2.3c-0.6,0.2-1.2,0.2-1.8-0.1c-1-0.4-1.4-1.2-1.5-2.2
		c-0.1-1.1,0.3-2.1,0.9-3.1c0.5-0.9,1.2-1.6,2-2.3c0.1-0.1,0.1-0.2,0.2-0.3c-0.1,0-0.3,0-0.4,0c-0.7,0.1-1.5,0-2.1-0.4
		c-0.4-0.3-0.7-0.7-0.8-1.2c0-0.1-0.1-0.2-0.1-0.3c-0.1,0.1-0.2,0.1-0.3,0.2c-1.3,1-2.8,1.4-4.3,1.3c-0.8,0-1.5-0.3-2.1-0.9
		c-0.1-0.1-0.2-0.1-0.4,0c-0.4,0.1-0.8,0.3-1.2,0.3c-1.6,0.2-2.8-0.4-3.7-1.7c-0.1-0.1-0.1-0.2-0.2-0.3c-0.3,0.2-0.6,0.4-0.9,0.6
		c-0.8,0.5-1.6,0.9-2.5,1.1c-0.9,0.2-1.8,0-2.5-0.7c-0.2-0.2-0.3-0.1-0.5,0c-0.7,0.6-1.6,1-2.5,1.2c-1.2,0.2-2-0.3-2.4-1.4
		c-0.4-1-0.5-2.1-0.5-3.1c0-1.3-0.1-2.5-0.5-3.7c-0.1-0.3-0.2-0.5-0.3-0.7c-0.2-0.4-0.6-0.4-0.8-0.1c-0.3,0.4-0.6,0.8-0.8,1.2
		c-0.5,1.2-0.5,2.4-0.5,3.7c0,1,0.1,1.9,0.1,2.9c0,0.3-0.1,0.5-0.4,0.6c-0.2,0-0.4,0.1-0.5,0.1c-0.2,0-0.3-0.1-0.3-0.3
		c0-1.2-0.1-2.4-0.1-3.6c0-1.7,0.1-3.4,0.2-5.2c0.1-1.3,0.4-2.6,0.7-3.9c0.4-1.6,1-3.1,1.9-4.5C23.3,2.4,24,1.5,25,1
		c0.8-0.4,1.6-0.5,2.4-0.3C27.4,0.7,27.4,0.7,27.5,0.8z M41.5,17.3c0,0.6,0.1,1.2,0.3,1.8c0.1,0.3,0.2,0.3,0.4,0.1
		c0.5-0.6,1-1.2,1.4-1.8c0.5-0.8,0.9-1.7,1.3-2.5c0.6-1.2,1.1-2.5,1.3-3.8c0.1-0.8,0.1-1.5-0.2-2.2c-0.2-0.5-0.6-0.6-1.1-0.3
		c-0.6,0.4-0.9,1-1.3,1.5c-0.7,1.2-1.2,2.4-1.6,3.7C41.8,14.9,41.5,16.1,41.5,17.3z M53.6,23.5C53.6,23.5,53.6,23.5,53.6,23.5
		c-0.1-0.7-0.1-1.3-0.1-2c0-0.2-0.1-0.3-0.3-0.1c-1.7,1.3-3,2.9-3.6,5c-0.2,0.8-0.2,1.6,0.3,2.3c0.7,1,1.6,1,2.4,0.2
		c0.6-0.6,1-1.4,1-2.3C53.5,25.6,53.6,24.6,53.6,23.5z M36.4,17.3C36.4,17.3,36.5,17.3,36.4,17.3c0.1,0,0.2-0.1,0.2-0.1
		c0.3-0.5,0.6-1,0.8-1.5c0.8-1.8,1.3-3.6,1.6-5.5c0.1-0.6,0.1-1.2-0.2-1.7c0-0.1-0.2-0.2-0.3-0.3c-0.1,0-0.2,0.1-0.3,0.2
		C38,8.9,37.6,9.4,37.4,10c-0.3,0.9-0.6,1.9-0.9,2.9c-0.3,1.1-0.4,2.3-0.3,3.5C36.3,16.7,36.3,17,36.4,17.3z M66,20
		c-0.1,0-0.1,0-0.2,0c-0.6,0-1.2,0-1.8,0c-0.7,0-1.3,0-2,0c-0.5,0-0.5,0.2-0.2,0.6c0.5,0.6,1.2,1.1,2,1.3c0.4,0.1,0.8,0.2,1.2,0
		C65.6,21.7,66.1,20.7,66,20z M29.7,16.3c0.1,0.6,0.2,1.1,0.3,1.7c0,0.1,0.1,0.1,0.1,0.1c0,0,0.1,0,0.2-0.1c0.5-0.8,1-1.7,1.2-2.7
		c0.1-0.5,0.2-1.1-0.1-1.6c-0.1-0.2-0.3-0.4-0.4-0.4c-0.2,0-0.4,0.2-0.5,0.3C29.9,14.5,29.7,15.4,29.7,16.3z"/>
	<path class="st0" d="M11.6,23.3c-0.4-0.4-0.7-0.7-1.1-1c-1.2-0.9-2.3-1.8-3.5-2.7c-0.5-0.3-1-0.6-1.5-0.9C4.1,18,2.7,17.2,1.7,16
		c-0.9-1.2-0.9-2.2-0.2-3.5c0.9-1.5,2.2-2.5,3.8-3.2c1-0.5,2.1-0.9,3.2-1.1c1.4-0.3,2.9-0.4,4.4-0.2C14,8.2,15.2,8.4,16.2,9
		c1.6,0.9,2.5,2.4,2.7,4.2c0,0.2,0,0.3,0,0.5c0,0.5-0.5,0.9-0.9,0.7c-0.1,0-0.2-0.2-0.2-0.3c-0.1-1.3-0.5-2.5-1.5-3.4
		c-0.7-0.7-1.6-1.2-2.6-1.4C12.1,8.7,10.4,8.6,8.7,9c-1.1,0.2-2.2,0.5-3.2,1c-1,0.5-1.9,1-2.5,2c-0.8,1.3-0.7,2.8,0.4,3.9
		c0.6,0.5,1.2,1,1.9,1.4c1.4,0.9,2.9,1.8,4.3,2.8c1.1,0.8,2.2,1.7,3.3,2.6c0.2,0.1,0.3,0.2,0.5,0.1c1.6-0.4,3.2-0.8,4.8-0.9
		c1.4-0.1,2.8-0.1,4.2,0.5c1.8,0.7,2.9,2.2,2.9,4.2c0,1.7-0.5,3.2-1.2,4.7c-0.2,0.3-0.3,0.7-0.5,1c-0.1,0.2-0.1,0.3,0.1,0.3
		c2,0.6,3.7,1.7,5.4,2.9c0.7,0.5,1.3,1.1,1.6,1.9c0.1,0.3,0.2,0.7,0.2,1c0,0.3-0.1,0.4-0.3,0.5c-0.5,0.2-0.9,0-1.2-0.3
		c-0.1-0.1-0.2-0.2-0.3-0.3c-0.3-0.4-0.3-0.5,0.1-0.8c0.2-0.1,0.1-0.2,0-0.3c-0.4-0.6-0.9-1.1-1.5-1.5c-1.4-1-2.9-1.8-4.5-2.3
		c-0.2-0.1-0.3,0-0.3,0.1c-1.4,2.2-3.1,4.2-5,6c-1.7,1.6-3.5,3-5.5,4.1c-1.7,1-3.4,1.7-5.2,2.3c-1.2,0.4-2.5,0.6-3.8,0.3
		c-1.2-0.2-2.3-1-2.5-2.3c-0.1-0.8,0.1-1.5,0.4-2.2c0.7-1.5,1.8-2.7,3-3.9c1.5-1.5,3.3-2.7,5.2-3.7c1.4-0.8,2.9-1.4,4.4-1.8
		c1.2-0.3,2.4-0.6,3.6-0.6c1.6-0.1,3.3,0.1,4.9,0.4c0.2,0,0.2,0,0.3-0.1c0.7-1.3,1.3-2.6,1.5-4.1c0.2-1.2,0.1-2.4-0.7-3.5
		c-0.6-0.8-1.4-1.3-2.3-1.6c-1.5-0.4-3.1-0.3-4.6-0.1c-0.9,0.2-1.7,0.4-2.6,0.6c-0.2,0.1-0.2,0.1-0.1,0.3c0.7,0.9,1.4,1.7,2.1,2.6
		c0.5,0.6,0.8,1.3,0.9,2.1c0.2,1.2-0.2,2.1-1,2.8c-1,0.9-2.3,1.3-3.7,1.4c-1.5,0.1-3-0.1-4.4-0.6c-0.9-0.3-1.6-0.8-2.1-1.7
		c-0.6-0.9-0.5-1.9,0-2.8c0.4-0.8,1.1-1.4,1.8-2c1.2-0.9,2.6-1.6,4-2.2c0,0,0.1,0,0.1-0.1C11.5,23.4,11.6,23.4,11.6,23.3z M4.7,45.5
		c1.6,0,3.3-0.5,4.9-1.2c2-0.9,3.8-2.1,5.5-3.5c1.6-1.4,3.1-2.9,4.5-4.5c0.8-0.9,1.5-1.9,2.1-2.9c0.2-0.3,0.1-0.3-0.2-0.4
		c-2.2-0.6-4.5-0.6-6.7,0c-1.8,0.4-3.6,1.1-5.3,2c-1.3,0.7-2.6,1.5-3.7,2.6c-1.3,1.2-2.4,2.6-3.3,4.1C2.2,42.4,2,43,1.9,43.8
		c0,0.6,0.2,1.1,0.8,1.4C3.3,45.5,3.9,45.5,4.7,45.5z M11.3,31.8c1.4,0,2.3-0.2,3.2-0.7c0.7-0.4,1.1-1.3,1-2.1
		c-0.1-0.6-0.2-1.1-0.5-1.6c-0.7-1.2-1.6-2.3-2.6-3.3C12.4,24,12.2,24,12.1,24c-0.9,0.4-1.9,0.8-2.8,1.3c-0.9,0.5-1.8,1-2.5,1.9
		c-0.4,0.4-0.7,0.9-0.7,1.5c0,1,0.6,1.6,1.4,2.1C8.7,31.5,10,31.8,11.3,31.8z"/>
	<path class="st0" d="M50.8,32c-0.4,1.1-1,2.1-1.8,2.8c-0.4,0.4-0.4,0.7-0.2,1.2c0.3,0.7,0.7,1.2,1.5,1.4c0.7,0.1,1.2-0.2,1.7-0.7
		c0.1-0.1,0.1-0.2,0.1-0.2c0.1-1.1,0.3-2.2,0.8-3.2c0.4-0.9,1.1-1.6,2-2c0.2-0.1,0.5-0.1,0.8-0.2c-0.1,0.5-0.1,0.9-0.3,1.3
		c-0.4,1.5-1.1,2.8-2.2,3.9c-0.1,0.1-0.1,0.1-0.1,0.2c0,0.7-0.1,1.5-0.1,2.3c0.2-0.1,0.4-0.1,0.5-0.2c1.3-0.6,2.6-1.3,3.9-2
		c1.5-0.8,2.8-1.7,3.8-3c0.2-0.3,0.4-0.6,0.7-0.9c0.2-0.3,0.8-0.6,1.2-0.5c0,0.5,0,1,0,1.5c0.1,0.9,0.2,1.7,0.3,2.6
		c0.1,0.6,0.1,1.3-0.2,1.9c-0.4,0.9-1.2,1.4-2.1,1.6c-1.1,0.2-2.2,0-3.2-0.4c-0.2-0.1-0.3-0.2-0.5-0.3c-0.5-0.4-0.5-0.8-0.1-1.2
		c0.7-0.8,1.7-1.1,2.7-1.2c0.1,0,0.2,0.1,0.4,0.2c-0.1,0.1-0.2,0.3-0.3,0.3c-0.3,0.1-0.6,0.1-0.9,0.1c-0.3,0-1,0.4-1.1,0.6
		c-0.1,0.3,0.2,0.8,0.6,1c0.6,0.3,1.2,0.5,1.8,0.5c0.9,0,1.5-0.5,1.5-1.4c0-0.8-0.1-1.7-0.1-2.5c0-0.4-0.1-0.7-0.1-1.1
		c0-0.1,0-0.2,0-0.3c-0.1,0-0.1,0-0.2,0.1c-1.3,1.3-2.9,2.1-4.5,3c-1.3,0.7-2.7,1.3-4,2C53,39.1,53,39.2,53,39.4
		c0,1.2,0,2.4-0.3,3.5c-0.4,1.4-1.1,2.5-2.4,3.2c-0.8,0.4-1.6,0.4-2.4,0.1c-0.3-0.1-0.7-0.3-1-0.6c-0.6-0.5-0.6-1.2-0.2-2
		c0.5-0.8,1.2-1.5,1.9-2.1c0.9-0.8,1.9-1.5,3-2.1c0.1,0,0.2-0.2,0.2-0.2c0-0.6,0-1.3,0-1.9c0,0-0.1,0-0.2,0.1
		c-0.7,0.3-1.5,0.5-2.3,0.4c-1.1-0.1-1.7-0.7-1.8-1.8c-0.2,0.1-0.4,0.1-0.5,0.2c-1.2,0.7-2.4,1-3.8,0.9c-0.9-0.1-1.8-0.3-2.3-1.2
		c-0.1-0.1-0.2-0.3-0.2-0.5c-0.1-0.2-0.2-0.2-0.4-0.2c-1.4,0.3-2.6-0.1-3.4-1.4c-0.1-0.2-0.2-0.2-0.4-0.1c-1.1,0.7-2.4,1.1-3.7,1.2
		c-1,0-2.1-0.1-3-0.7c-0.7-0.5-0.9-1.2-0.9-1.9c0-0.2,0-0.4,0-0.6c0-0.2,0-0.3-0.2-0.3c-0.6-0.1-1-0.5-1.3-1.1
		c-0.1-0.2,0-0.3,0.1-0.4c0.1-0.1,0.2-0.1,0.4-0.2c0.5-0.1,0.5-0.1,0.7,0.3c0.1,0.2,0.3,0.4,0.5,0.6c0.1-0.2,0.2-0.3,0.3-0.4
		c0.4-0.7,0.9-1.2,1.7-1.5c0.7-0.3,1.5-0.5,2.3-0.5c0.3,0,0.6,0,0.7,0.3c0.2,0.3,0,0.5-0.2,0.7c-0.8,1.1-2,1.6-3.3,2
		c-0.6,0.2-0.5,0-0.5,0.7c0.1,1.3,0.9,2.1,2.1,2.4c1.4,0.3,2.6,0,3.8-0.7c0.1-0.1,0.3-0.2,0.4-0.3c0.1-0.1,0.1-0.2,0.1-0.3
		c-0.3-1.7,0.2-3.2,1-4.6c0.6-1.2,1.5-2.3,2.4-3.3c0.5-0.5,1.1-0.9,1.8-1.1c0.9-0.3,1.7,0.2,1.9,1c0.1,0.5-0.1,1-0.3,1.4
		c-0.6,1.3-1.6,2.5-2.5,3.6c-0.8,1-1.8,2-2.9,2.8c-0.2,0.1-0.2,0.2-0.1,0.4c0.4,0.6,0.8,1.2,1.5,1.4c0.3,0.1,0.6,0.1,1,0.1
		c0.1,0,0.2-0.1,0.2-0.2c-0.1-1.9,0.6-3.5,1.6-5c0.8-1.3,1.8-2.3,3.3-2.9c0.5-0.2,1-0.2,1.6-0.3c0.5,0,0.7,0.4,0.5,1
		c-0.2,0.6-0.5,1.3-0.8,1.8c-0.7,1.1-1.5,2.2-2.2,3.3c-0.6,0.9-1.5,1.5-2.4,2C42,34.7,42,34.8,42,35c0.5,1.3,1.8,2,3.1,1.7
		c1-0.2,1.7-0.7,2.4-1.4c0.1-0.1,0.1-0.1,0.1-0.2c0.3-1.1,0.9-2.1,1.9-2.8C49.9,32.1,50.3,32.1,50.8,32z M51.8,39.8
		c-0.1,0.1-0.3,0.1-0.4,0.2c-0.7,0.5-1.4,0.9-2.1,1.4c-0.5,0.4-1,0.9-1.4,1.4c-0.3,0.4-0.5,0.9-0.3,1.4c0.2,0.6,0.5,1.2,0.9,1.6
		c0.4,0.3,0.7,0.4,1.2,0.2c0.5-0.3,0.8-0.8,1-1.2c0.6-1.1,1-2.3,1-3.6C51.9,40.8,51.8,40.3,51.8,39.8z M37.7,32.4
		c0.2-0.1,0.3-0.2,0.3-0.2c0.8-0.8,1.5-1.5,2.2-2.3c0.8-0.9,1.6-1.9,2-3c0.2-0.4,0.4-0.9,0.3-1.4c0-0.4-0.6-1-1.1-0.8
		c-0.4,0.2-0.7,0.4-0.9,0.8c-0.5,0.7-0.9,1.3-1.4,2c-0.6,0.9-1.1,1.9-1.4,2.9C37.7,31,37.6,31.7,37.7,32.4z M41.8,34.3
		c0.1-0.1,0.3-0.1,0.3-0.2c0.4-0.4,0.9-0.8,1.3-1.3c0.9-1.1,1.7-2.3,2.3-3.6c0.2-0.5,0.5-1.1,0.6-1.6c0.1-0.5-0.1-0.6-0.6-0.5
		c-0.1,0-0.1,0.1-0.2,0.1c-0.3,0.2-0.7,0.5-1,0.7c-1.1,1-1.8,2.2-2.3,3.6C41.9,32.4,41.7,33.2,41.8,34.3z M30.2,31
		c0.8,0,1.5-0.2,2.1-0.7c0.3-0.3,0.6-0.7,0.6-1.1c0.1-0.4-0.1-0.6-0.5-0.5c-0.1,0-0.2,0-0.3,0.1c-0.9,0.3-1.4,0.9-1.8,1.7
		C30.3,30.6,30.3,30.8,30.2,31z M54.2,32.9c-0.4,0.1-0.8,1.2-0.6,1.6C53.8,34,54,33.5,54.2,32.9z"/>
	<path class="st0" d="M62,10.8c0,1.6-0.7,2.3-2.1,2.7c-0.3,0.1-0.5,0.1-0.8,0.1c-0.1,0-0.1-0.1-0.2-0.1c0-0.1,0.1-0.2,0.1-0.2
		c0.2-0.1,0.4-0.2,0.5-0.3c0.5-0.1,0.8-0.4,0.8-0.9c0-0.7,0-1.4-0.1-2.1C60.2,9.5,60.1,9,60,8.5c-0.1-0.3,0.1-0.5,0.3-0.6
		c0.9-0.4,1.3-0.2,2,0.5c0,0,0,0.2,0,0.2c0,0.1-0.1,0.1-0.2,0.1C61.7,9,61.8,9,61.8,9.5C61.9,10,62,10.5,62,10.8z"/>
	<path class="st0" d="M74.4,36.4c-0.5-0.1-0.9-0.2-1.3-0.3c-0.7-0.1-1.4,0.4-1.6,1c-0.3,0.8,0,1.6,0.7,2c0.6,0.3,1.2,0.3,1.8,0
		c0.1-0.1,0.3-0.1,0.4-0.2c0,0.5,0,0.5-0.4,0.6c-0.5,0.1-1.1,0.2-1.6,0.1c-0.8-0.2-1.2-0.6-1.4-1.4c-0.2-0.7-0.1-1.4,0.4-1.9
		c0.8-0.9,1.9-0.8,2.9-0.4C74.3,36,74.3,36.2,74.4,36.4z"/>
	<path class="st0" d="M68.5,39.3c0.6,0,1,0,1.5,0c0.4,0,0.4,0,0.3,0.4c-0.7,0-1.5,0-2.2,0c0-1.3,0-2.6,0-3.9c0.1,0,0.2,0,0.4,0
		C68.5,36.9,68.5,38.1,68.5,39.3z"/>
	<path class="st0" d="M65.2,35.8c0.2,0,0.3,0,0.5,0c0,0.5,0,0.9,0,1.4c0,0.6,0,1.2,0,1.9c0,0.2,0.1,0.3,0.3,0.3c0.5,0,1,0,1.5,0
		c0,0.1,0,0.3,0,0.4c-0.7,0-1.5,0-2.2,0c0,0-0.1-0.2-0.1-0.3c0-1,0-2.1,0-3.1C65.2,36.2,65.2,36,65.2,35.8z"/>
	<path class="st0" d="M63.7,40.4c0.2-0.3,0.3-0.6,0-0.8c-0.1,0-0.1-0.2,0-0.3c0-0.1,0.2-0.2,0.3-0.2c0.1,0,0.3,0.2,0.3,0.3
		C64.4,39.7,64.2,40.1,63.7,40.4z"/>
</g>
</svg>
